<!DOCTYPE svg PUBLIC "-//W3C//DTD SVG 20010904//EN" "http://www.w3.org/TR/2001/REC-SVG-20010904/DTD/svg10.dtd">
<svg version="1.0" xmlns="http://www.w3.org/2000/svg" width="109px" height="36px" viewBox="0 0 1090 360" preserveAspectRatio="xMidYMid meet">
<g id="layer101" fill="#259e40" stroke="none">
 <path d="M0 180 l0 -180 545 0 545 0 0 180 0 180 -545 0 -545 0 0 -180z"/>
 </g>
<g id="layer102" fill="#fdfffd" stroke="none">
 <path d="M0 180 l0 -180 545 0 545 0 0 180 0 180 -545 0 -545 0 0 -180z m198 13 c2 -34 0 -43 -12 -43 -11 0 -16 10 -16 30 0 24 -4 30 -22 30 -37 0 -52 -16 -52 -55 0 -42 15 -55 62 -55 38 0 40 -23 3 -28 -63 -10 -109 39 -96 104 8 44 39 65 90 62 39 -3 40 -4 43 -45z m62 27 c0 -11 -7 -20 -15 -20 -8 0 -15 9 -15 20 0 11 7 20 15 20 8 0 15 -9 15 -20z m158 8 c7 -7 12 -42 12 -85 0 -58 -3 -73 -15 -73 -12 0 -15 15 -15 71 l0 71 -30 -4 c-29 -4 -51 16 -27 26 23 9 63 6 75 -6z m150 -35 c4 -60 -11 -83 -53 -83 -24 0 -35 5 -35 15 0 9 9 15 24 15 14 0 28 5 31 10 3 6 -3 10 -14 10 -36 0 -51 12 -51 40 0 33 11 40 60 37 34 -2 35 -4 38 -44z m111 -8 c25 -65 26 -75 8 -75 -8 0 -19 18 -26 40 -14 47 -27 45 -37 -5 -4 -22 -12 -35 -21 -35 -12 0 -14 7 -10 28 10 48 37 102 51 102 8 0 24 -24 35 -55z m71 -10 c0 -51 -3 -65 -15 -65 -12 0 -15 14 -15 65 0 51 3 65 15 65 12 0 15 -14 15 -65z m140 51 c0 -9 -12 -16 -32 -18 -49 -5 -48 -28 1 -28 45 0 51 -11 25 -48 -18 -26 -56 -29 -78 -6 -25 25 -24 82 2 102 23 17 82 16 82 -2z m70 -36 c0 -43 3 -50 20 -50 11 0 20 -7 20 -16 0 -11 -8 -14 -32 -12 -33 3 -33 3 -36 66 -2 51 0 62 13 62 11 0 15 -12 15 -50z m-207 -115 c8 -18 -11 -31 -25 -17 -11 11 -3 32 12 32 4 0 10 -7 13 -15z"/>
 <path d="M501 206 c-10 -11 -8 -16 9 -21 26 -8 35 -1 27 20 -8 19 -21 19 -36 1z"/>
 <path d="M820 150 c0 -5 9 -10 19 -10 11 0 23 5 26 10 4 6 -5 10 -19 10 -14 0 -26 -4 -26 -10z"/>
 </g>

</svg>