<svg width="128" height="128" xmlns="http://www.w3.org/2000/svg" xmlns:xlink="http://www.w3.org/1999/xlink"><defs><path id="a" d="M4 4h120v120H4z"/></defs><clipPath id="b"><use xlink:href="#a" overflow="visible"/></clipPath><g clip-path="url(#b)"><linearGradient id="c" gradientTransform="matrix(1.0084 0 0 1 3.5 0)" gradientUnits="userSpaceOnUse" x1="36.5" x2="36.5" y1="115.5" y2="5.1"><stop offset="0" stop-color="#edc391"/><stop offset="1" stop-color="#f9ddbd"/></linearGradient><path d="M18 91.3l-.1-.1c-.3-.2-.5-.5-.6-.8 0-.4 0-.7.3-1C19.9 88.1 37 80 41.2 76.1c1-1 1.6-3.4 2.5-8.5l.8-3.7c.2-1.3.9-3.5 1.6-5.9 1-3.2 1.9-6.5 2.2-8.5a835 835 0 0 0 5-37.3c.4-3.6 1.2-7.2 4.1-7.2 3.4 0 5.8 2.1 5.8 5.2l.2 79c0 5.7-2.1 6.5-4.6 7.5-1.4.5-3 1.1-4.1 2.6-2.3 3-4.7 7.1-7.1 11l-3 5L18 91.4z" fill="url(#c)"/><path d="M57.4 6c3 0 4.8 1.8 4.8 4.3l.2 79c0 5-1.5 5.6-4 6.5-1.5.6-3.2 1.3-4.5 3-2.3 3.1-4.8 7.2-7.1 11.2l-2.5 4-25.6-23.4-.3-.3v-.1-.1c3.2-1.6 19.3-9.3 23.5-13.1 1.3-1.2 1.8-3.7 2.9-9.1l.7-3.7c.2-1.2.9-3.4 1.5-5.8 1-3.2 2-6.6 2.3-8.6 2.8-16.6 5-37.2 5-37.4C54.9 8 55.9 6 57.5 6m0-2c-4 0-4.7 4.9-5 8 0 0-2.3 20.6-5 37.3-.6 3.4-3.3 11.5-3.9 14.4-1.2 6-1.9 10.7-3 11.7-4.4 4-23.6 13-23.6 13-1 1.2-.7 2.8.5 3.5l27.4 25c3.5-5.5 7.3-12.4 10.7-17 2.8-3.7 9-1 9-10.7l-.3-79c0-3.4-2.6-6.2-6.8-6.2z" fill="#e6b77e"/><linearGradient id="d" gradientUnits="userSpaceOnUse" x1="-2.9" x2="55.3" y1="103.7" y2="103.7"><stop offset="0" stop-color="#2196f3"/><stop offset="1" stop-color="#64b5f6"/></linearGradient><path d="M47.6 130.7L-3 130l.5-38.8L29.4 77c1.5-.6 3.2.2 3.6 1.8a50 50 0 0 0 8 16.9c4.6 6.2 9.5 11 12.5 13.7a5.3 5.3 0 0 1 1.2 6.3L42.6 125l5 5.7z" fill="url(#d)"/><path d="M52.6 18s.8-5.2 5.5-5.2 5 5.2 5 5.2M51.1 31s1-5.7 6-5.7 6.1 5.7 6.1 5.7" fill="none" stroke="#e6b77e" stroke-width="2" stroke-linecap="round" stroke-linejoin="round" stroke-miterlimit="10"/><g opacity=".2"><path d="M30.2 80c1 3.7 3.4 10.6 8.4 17.4a94.8 94.8 0 0 0 13 14.3c.5.5.8 1.3.6 2l-11.4 8.4a3 3 0 0 0-.5 4.3l1 1.2L0 127l.5-33.9L30.2 80m.3-3.1c-.4 0-.8 0-1.1.2L-2.4 91.3l-.5 38.8 50.5.6-5-6.2 12.1-8.8c1.1-2.1.6-4.7-1.2-6.3-3-2.7-8-7.5-12.5-13.7-4.8-6.6-7-13.2-8-17-.3-1.1-1.4-1.9-2.5-1.9z" fill="#424242"/></g></g><g clip-path="url(#b)"><linearGradient id="e" gradientTransform="matrix(-1.0084 0 0 1 -720 0)" gradientUnits="userSpaceOnUse" x1="-800.5" x2="-800.5" y1="115.5" y2="5.1"><stop offset="0" stop-color="#edc391"/><stop offset="1" stop-color="#f9ddbd"/></linearGradient><path d="M83 115.5l-3-5c-2.4-4-4.9-8-7.2-11a8.4 8.4 0 0 0-4-2.7c-2.6-1-4.7-1.8-4.7-7.4l.2-79c0-3.2 2.4-5.3 5.8-5.3 3 0 3.7 3.6 4 7.2 0 .2 2.4 20.7 5.1 37.3.3 2 1.3 5.3 2.3 8.5a87.2 87.2 0 0 1 2.3 9.6c1 5 1.5 7.6 2.6 8.6 4.2 3.8 21.3 12 23.6 13 .2.4.3.7.2 1 0 .4-.2.7-.6.9h-.1L83 115.6z" fill="url(#e)"/><path d="M70.1 6c1.7 0 2.6 2 3 6.4 0 .2 2.4 20.8 5.1 37.4.3 2 1.3 5.4 2.3 8.6l1.6 5.8.7 3.7c1 5.4 1.5 7.9 2.9 9a159 159 0 0 0 23.5 13.3l-.1.1-.3.3-25.6 23.3-2.4-4c-2.4-4-4.9-8-7.2-11.1-1.3-1.7-3-2.4-4.5-3-2.4-.9-4-1.5-4-6.4l.2-79c0-2.6 2-4.3 4.8-4.3m0-2c-4.2 0-6.8 2.8-6.8 6.2l-.2 79c0 9.7 6.2 7 9 10.7 3.4 4.6 7.2 11.5 10.7 17L110 92c1.3-.7 1.5-2.3.5-3.5 0 0-19.2-9-23.6-13-1.1-1-1.8-5.7-3-11.7-.6-3-3.3-11-3.8-14.4-2.8-16.7-5-37.2-5-37.2C74.7 8.9 74 4 70 4z" fill="#e6b77e"/><linearGradient id="f" gradientTransform="matrix(-1 0 0 1 -716.5 0)" gradientUnits="userSpaceOnUse" x1="-846.9" x2="-788.7" y1="103.7" y2="103.7"><stop offset="0" stop-color="#2196f3"/><stop offset="1" stop-color="#64b5f6"/></linearGradient><path d="M80 130.7l50.4-.6-.5-38.8L98 77c-1.4-.6-3.2.2-3.6 1.8a50 50 0 0 1-8 16.9c-4.5 6.2-9.5 11-12.5 13.7a5.3 5.3 0 0 0-1.2 6.3l12.1 9.3-5 5.7z" fill="url(#f)"/><path d="M75 18s-.9-5.2-5.6-5.2c-4.7 0-5 5.2-5 5.2M76.4 31s-1-5.7-6-5.7-6.1 5.7-6.1 5.7" fill="none" stroke="#e6b77e" stroke-width="2" stroke-linecap="round" stroke-linejoin="round" stroke-miterlimit="10"/><g opacity=".2"><path d="M97.3 80L127 93.2l.5 34-41 .4.9-1.2a3 3 0 0 0-.6-4.3l-11.4-8.3c-.2-.8 0-1.6.7-2.2 3.3-3 8.3-7.9 13-14.2 5-6.8 7.3-13.7 8.3-17.5m-.2-3.1c-1.2 0-2.3.8-2.6 2a50 50 0 0 1-8 16.9c-4.5 6.2-9.5 11-12.5 13.7a5.3 5.3 0 0 0-1.2 6.3l12.1 8.8-5 6.2 50.5-.6-.5-38.8L98 77l-1-.2z" fill="#424242"/></g></g></svg>